<svg width="78.429504" height="24.000000" viewBox="0 0 78.4295 24" fill="none" xmlns="http://www.w3.org/2000/svg" xmlns:xlink="http://www.w3.org/1999/xlink">
	<desc>
			Created with Pixso.
	</desc>
	<defs/>
	<path d="M4.85999 23.7L0 23.7L0 0L5.42999 0C6.54999 0 7.46002 0.0599976 8.15997 0.179993C8.88 0.279999 9.44 0.5 9.84003 0.839996C10.24 1.17999 10.51 1.66998 10.65 2.31C10.81 2.92999 10.89 3.77002 10.89 4.82999L10.89 7.29001C10.89 7.91 10.82 8.42001 10.68 8.82001C10.54 9.22 10.36 9.54001 10.14 9.78C9.94 10.02 9.71997 10.2 9.47998 10.32C9.23999 10.42 9.02002 10.49 8.82001 10.53L8.82001 10.65C9.12 10.73 9.39001 10.85 9.63 11.01C9.89001 11.15 10.11 11.37 10.29 11.67C10.47 11.97 10.61 12.37 10.71 12.87C10.83 13.35 10.89 13.97 10.89 14.73L10.89 23.7L6 23.7L6 13.2C6 12.94 5.96997 12.77 5.90997 12.69C5.84998 12.59 5.69 12.54 5.42999 12.54L4.85999 12.54L4.85999 23.7ZM4.85999 8.73001L5.42999 8.73001C5.69 8.73001 5.84998 8.69 5.90997 8.60999C5.96997 8.51001 6 8.33002 6 8.07001L6 4.82999C6 4.56998 5.96997 4.40002 5.90997 4.32001C5.84998 4.22 5.69 4.17001 5.42999 4.17001L4.85999 4.17001L4.85999 8.73001ZM22.2764 20.19C22.2764 21.03 22.2064 21.7 22.0664 22.2C21.9464 22.7 21.7064 23.09 21.3464 23.37C21.0064 23.63 20.5264 23.8 19.9064 23.88C19.3064 23.96 18.5164 24 17.5364 24C16.5764 24 15.7864 23.96 15.1664 23.88C14.5464 23.8 14.0664 23.63 13.7264 23.37C13.3864 23.09 13.1464 22.7 13.0064 22.2C12.8864 21.7 12.8264 21.03 12.8264 20.19L12.8264 9.23999C12.8264 8.39999 12.8864 7.73001 13.0064 7.23001C13.1464 6.72998 13.3864 6.35001 13.7264 6.09C14.0664 5.81003 14.5464 5.63 15.1664 5.54999C15.7864 5.47 16.5764 5.42999 17.5364 5.42999C18.5164 5.42999 19.3064 5.47 19.9064 5.54999C20.5264 5.63 21.0064 5.81003 21.3464 6.09C21.7064 6.35001 21.9464 6.72998 22.0664 7.23001C22.2064 7.73001 22.2764 8.39999 22.2764 9.23999L22.2764 20.19ZM16.9964 19.35C16.9964 19.61 17.0264 19.79 17.0864 19.89C17.1464 19.97 17.2964 20.01 17.5364 20.01C17.7964 20.01 17.9564 19.97 18.0164 19.89C18.0764 19.79 18.1064 19.61 18.1064 19.35L18.1064 10.08C18.1064 9.81998 18.0764 9.65002 18.0164 9.57001C17.9564 9.47 17.7964 9.42001 17.5364 9.42001C17.2964 9.42001 17.1464 9.47 17.0864 9.57001C17.0264 9.65002 16.9964 9.81998 16.9964 10.08L16.9964 19.35ZM28.7236 0L28.7236 6.54001C28.9836 6.17999 29.3036 5.93002 29.6836 5.79001C30.0836 5.64999 30.5736 5.57999 31.1536 5.57999C31.7336 5.57999 32.2036 5.64999 32.5636 5.79001C32.9236 5.91 33.1936 6.11002 33.3736 6.39001C33.5736 6.66998 33.7036 7.04999 33.7635 7.53C33.8436 7.98999 33.8836 8.56 33.8836 9.23999L33.8836 20.19C33.8836 20.89 33.8436 21.48 33.7635 21.96C33.7036 22.42 33.5736 22.79 33.3736 23.07C33.1736 23.35 32.8836 23.55 32.5036 23.67C32.1236 23.79 31.6336 23.85 31.0336 23.85C30.3536 23.85 29.8036 23.78 29.3836 23.64C28.9636 23.48 28.6436 23.23 28.4236 22.89L28.4236 23.7L24.4336 23.7L24.4336 0L28.7236 0ZM29.7136 10.08C29.7136 9.84 29.6836 9.66998 29.6236 9.57001C29.5836 9.47 29.4536 9.42001 29.2336 9.42001C29.0336 9.42001 28.8836 9.45999 28.7836 9.54001C28.7036 9.60001 28.6436 9.69998 28.6036 9.84L28.6036 19.59C28.6436 19.73 28.7036 19.84 28.7836 19.92C28.8836 19.98 29.0336 20.01 29.2336 20.01C29.4536 20.01 29.5836 19.96 29.6236 19.86C29.6836 19.76 29.7136 19.59 29.7136 19.35L29.7136 10.08ZM40.3551 3.12L36.0952 3.12L36.0952 0L40.3551 0L40.3551 3.12ZM40.3551 23.7L36.0952 23.7L36.0952 5.73001L40.3551 5.73001L40.3551 23.7ZM52.5529 23.7L48.2329 23.7L48.2329 10.08C48.2329 9.84 48.2029 9.66998 48.1429 9.57001C48.1027 9.47 47.9728 9.42001 47.7529 9.42001C47.5527 9.42001 47.4028 9.45999 47.3029 9.54001C47.2228 9.60001 47.1529 9.69998 47.0929 9.84L47.0929 23.7L42.8029 23.7L42.8029 5.73001L46.7929 5.73001L46.7929 6.54001C47.0128 6.20001 47.3329 5.96002 47.7529 5.82001C48.1729 5.66 48.7228 5.57999 49.4029 5.57999C50.0029 5.57999 50.5026 5.64001 50.9029 5.76001C51.3229 5.88 51.6529 6.08002 51.8929 6.36002C52.1329 6.63998 52.3026 7.01999 52.4029 7.5C52.5027 7.95999 52.5529 8.54001 52.5529 9.23999L52.5529 23.7ZM59.194 23.7L54.8439 23.7L54.8439 19.47L59.194 19.47L59.194 23.7ZM78.4295 0L75.9695 23.7L69.8495 23.7L69.0395 6.51001L68.9195 6.51001L67.9295 23.7L61.7195 23.7L59.8895 0L64.7795 0L65.2895 16.62L65.4095 16.62L66.1295 0L72.1295 0L72.6395 16.62L72.7595 16.62L73.5095 0L78.4295 0Z" fill="#FFFFFF" fill-opacity="1.000000" fill-rule="nonzero"/>
</svg>
